<svg xmlns="http://www.w3.org/2000/svg" viewBox="0 0 256 256">
  <defs>
    <linearGradient id="bg" x1="0" y1="0" x2="1" y2="1">
      <stop offset="0" stop-color="#1a2233"/>
      <stop offset="1" stop-color="#0d1117"/>
    </linearGradient>
    <linearGradient id="screen" x1="0" y1="0" x2="0" y2="1">
      <stop offset="0" stop-color="#2563eb"/>
      <stop offset="1" stop-color="#1e40af"/>
    </linearGradient>
    <linearGradient id="glass" x1="0" y1="0" x2="1" y2="1">
      <stop offset="0" stop-color="rgba(255,255,255,0.3)"/>
      <stop offset="1" stop-color="rgba(255,255,255,0.05)"/>
    </linearGradient>
  </defs>

  <rect x="0" y="0" width="256" height="256" rx="48" fill="url(#bg)"/>

  <rect x="32" y="48" width="164" height="112" rx="10"
        fill="#2a3441" stroke="#58a6ff" stroke-width="4"/>

  <rect x="40" y="56" width="148" height="88" rx="4" fill="url(#screen)"/>

  <rect x="48" y="64" width="40" height="26" rx="2" fill="rgba(255,255,255,0.25)"/>
  <rect x="92" y="64" width="40" height="26" rx="2" fill="rgba(255,255,255,0.18)"/>
  <rect x="136" y="64" width="44" height="26" rx="2" fill="rgba(255,255,255,0.22)"/>
  <rect x="48" y="94" width="132" height="6" rx="1" fill="rgba(255,255,255,0.28)"/>
  <rect x="48" y="106" width="96" height="6" rx="1" fill="rgba(255,255,255,0.22)"/>
  <rect x="48" y="118" width="120" height="6" rx="1" fill="rgba(255,255,255,0.22)"/>
  <rect x="48" y="130" width="72" height="6" rx="1" fill="rgba(255,255,255,0.22)"/>

  <rect x="102" y="160" width="24" height="14" fill="#58a6ff"/>
  <rect x="80" y="174" width="68" height="10" rx="3" fill="#58a6ff"/>

  <line x1="194" y1="178" x2="232" y2="220" stroke="#0d1117" stroke-width="24" stroke-linecap="round"/>
  <line x1="194" y1="178" x2="232" y2="220" stroke="#3fb950" stroke-width="16" stroke-linecap="round"/>

  <circle cx="170" cy="148" r="44" fill="#0d1117"/>
  <circle cx="170" cy="148" r="42" fill="url(#glass)" stroke="#3fb950" stroke-width="10"/>
  <ellipse cx="158" cy="134" rx="14" ry="8" fill="rgba(255,255,255,0.35)"/>
</svg>
